<?xml version="1.0" encoding="UTF-8"?>
<svg id="Layer_1" data-name="Layer 1" xmlns="http://www.w3.org/2000/svg" version="1.1" viewBox="0 0 1080 768">
  <defs>
    <style>
      .cls-1 {
        fill: #f5f5f5;
        stroke-width: 0px;
      }
    </style>
  </defs>
  <g>
    <path class="cls-1" d="M622.7,383.95c0-7.77,1.4-15.21,4.2-22.32,2.8-7.11,6.74-13.37,11.84-18.77,5.09-5.4,11.2-9.66,18.36-12.76,7.15-3.11,15.19-4.67,24.13-4.67s17.02,1.56,24.25,4.67c7.23,3.11,13.42,7.36,18.59,12.76s9.13,11.64,11.89,18.71c2.75,7.07,4.14,14.53,4.14,22.38s-1.38,15.39-4.14,22.38c-2.76,6.99-6.72,13.21-11.89,18.65-5.17,5.44-11.36,9.72-18.59,12.82-7.23,3.11-15.31,4.66-24.25,4.66s-16.98-1.56-24.13-4.66c-7.15-3.11-13.27-7.38-18.36-12.82-5.1-5.44-9.04-11.66-11.84-18.65-2.8-6.99-4.2-14.46-4.2-22.38ZM648.7,383.95c0,4.74.76,9.27,2.27,13.58,1.52,4.31,3.71,8.06,6.59,11.25,2.87,3.19,6.31,5.73,10.31,7.63,4,1.9,8.46,2.86,13.35,2.86s9.38-.95,13.46-2.86c4.08-1.9,7.54-4.45,10.37-7.63,2.84-3.19,5.05-6.94,6.65-11.25,1.59-4.31,2.39-8.84,2.39-13.58s-.79-9.27-2.39-13.58c-1.59-4.31-3.81-8.06-6.65-11.25-2.84-3.19-6.29-5.73-10.37-7.63-4.08-1.91-8.57-2.86-13.46-2.86s-9.35.95-13.35,2.86c-4,1.9-7.44,4.45-10.31,7.63-2.88,3.19-5.07,6.92-6.59,11.19-1.51,4.27-2.27,8.82-2.27,13.64Z"/>
    <path class="cls-1" d="M876.18,417.76c-2.56,0-4.84-.25-6.82-.76-1.98-.51-3.69-1.52-5.13-3.04-1.44-1.52-2.51-3.72-3.21-6.6-.7-2.88-1.05-6.69-1.05-11.45v-22.46c0-7.69-.51-14.08-1.52-19.17-1.01-5.09-2.87-9.7-5.59-13.82-3.19-4.58-7.54-8.24-13.05-10.96-5.53-2.72-12.32-4.08-20.4-4.08s-15.47,1.54-21.68,4.62c-6.22,3.08-11.08,7.62-14.57,13.62v-15.32h-25.99v111.21h25.99v-57.73c0-9.51,2.17-17.49,6.53-23.96,4.35-6.47,11.08-9.7,20.17-9.7,4.67,0,8.53.88,11.6,2.63,3.07,1.75,5.52,4.09,7.34,7.02,1.83,2.92,3.15,6.47,3.97,10.63.82,4.17,1.22,8.63,1.22,13.38v19.96c0,9.4,1.26,16.73,3.79,21.97,2.53,5.25,5.67,9.15,9.44,11.72,3.77,2.56,7.72,4.12,11.83,4.67,4.12.54,7.77.82,10.96.82s6.47-.17,9.56-.41v-22.86c-1.2.05-2.33.07-3.38.07Z"/>
    <path class="cls-1" d="M477.61,417.76c-2.56,0-4.84-.25-6.82-.76-1.98-.51-3.69-1.52-5.13-3.04-1.44-1.52-2.51-3.72-3.21-6.6-.7-2.88-1.05-6.69-1.05-11.45v-67.58h-26v.05h-.05v15.04c-3.5-5.6-8.47-9.98-14.92-13.17-6.45-3.19-12.94-4.78-19.47-4.78-8.39,0-16.09,1.56-23.08,4.67-6.99,3.11-13,7.36-18.01,12.76-5.01,5.4-8.92,11.66-11.72,18.77-2.79,7.11-4.19,14.56-4.19,22.32s1.4,15.39,4.19,22.38c2.8,6.99,6.71,13.21,11.72,18.65,5.01,5.44,10.99,9.72,17.95,12.82,6.96,3.11,14.67,4.66,23.14,4.66,6.53,0,13.02-1.59,19.47-4.78,6.45-3.19,11.42-7.58,14.92-13.17.93-1.46,1.73-3,2.43-4.49.42,1.3.87,2.56,1.41,3.68,2.53,5.25,5.67,9.15,9.44,11.72,3.77,2.56,7.72,4.12,11.83,4.67,4.12.54,7.77.82,10.96.82s6.47-.17,9.56-.41v-22.86c-1.21.05-2.33.07-3.38.07ZM432.97,397.58c-1.59,4.31-3.81,8.06-6.64,11.25-2.84,3.19-6.3,5.73-10.38,7.63-4.08,1.9-8.57,2.86-13.46,2.86s-9.34-.95-13.35-2.86c-4-1.9-7.44-4.45-10.32-7.63-2.87-3.19-5.07-6.94-6.59-11.25-1.52-4.31-2.28-8.84-2.28-13.58s.76-9.36,2.28-13.64c1.51-4.27,3.71-8,6.59-11.19,2.87-3.19,6.31-5.73,10.32-7.63,4-1.91,8.46-2.86,13.35-2.86s9.39.95,13.46,2.86c4.08,1.9,7.54,4.45,10.38,7.63,2.84,3.19,5.05,6.93,6.64,11.25,1.59,4.31,2.39,8.84,2.39,13.58s-.79,9.27-2.39,13.58Z"/>
    <path class="cls-1" d="M604.63,361.57c-2.8-7.07-6.7-13.31-11.72-18.71-5.01-5.4-11-9.66-17.95-12.76-6.96-3.11-14.67-4.67-23.14-4.67-6.53,0-13.02,1.59-19.47,4.78-6.45,3.19-11.42,7.57-14.92,13.17v-15.04h-26v167.05h26v-111.45c0-4.82.76-9.36,2.27-13.64,1.52-4.27,3.69-8,6.53-11.19,2.84-3.19,6.28-5.73,10.32-7.63,4.04-1.91,8.63-2.86,13.76-2.86s9.34.95,13.34,2.86c4,1.9,7.44,4.45,10.32,7.63,2.87,3.19,5.07,6.93,6.58,11.25,1.52,4.31,2.28,8.84,2.28,13.58,0,24.31-17.06,33.77-32.52,33.77-.06,0-.12,0-.18,0h0s-22.21,0-22.21,0v23.16h23.24c.22.02.44.04.66.04,33.31,0,57-25.46,57-56.97,0-7.85-1.4-15.31-4.19-22.38Z"/>
    <path class="cls-1" d="M875.9,350.02v-21.68h18.88v-33.69h26v33.69h25.53v21.68h-25.53v45.89c0,4.75.35,8.57,1.05,11.45.7,2.88,1.77,5.08,3.21,6.6,1.43,1.52,3.14,2.53,5.13,3.04,1.98.51,4.25.76,6.82.76,2.1,0,4.51-.09,7.23-.29,2.72-.19,4.7-.45,5.94-.76v22.85c-2.1.31-4.89.62-8.39.93s-7.15.47-10.96.47c-3.19,0-6.84-.27-10.96-.82-4.12-.55-8.06-2.1-11.83-4.67-3.77-2.56-6.92-6.47-9.44-11.72-2.53-5.25-3.79-12.57-3.79-21.97v-51.76h-18.88Z"/>
    <path class="cls-1" d="M964,300.65v17.28h26v-17.28h-26ZM964,439.55h26v-111.21h-26v111.21Z"/>
  </g>
  <path class="cls-1" d="M253.32,333.96v-36.84h-36.84c0,20.35,16.49,36.84,36.84,36.84v26.4c20.31,0,36.84,16.53,36.84,36.84h26.4c0-34.87-28.37-63.24-63.24-63.24ZM253.32,434.04h-26.4c0,20.31-16.53,36.84-36.84,36.84v26.4c34.87,0,63.24-28.37,63.24-63.24h36.84v-36.84c-20.35,0-36.84,16.49-36.84,36.84ZM153.24,434.04v-26.4c-20.31,0-36.84-16.53-36.84-36.84h-26.4c0,34.87,28.37,63.24,63.24,63.24v36.84h36.84c0-20.35-16.49-36.84-36.84-36.84ZM153.24,333.96h26.4c0-20.31,16.53-36.84,36.84-36.84v-26.4c-34.87,0-63.24,28.37-63.24,63.24h-36.84v36.84c20.35,0,36.84-16.49,36.84-36.84Z"/>
</svg>